<svg xmlns="http://www.w3.org/2000/svg" style="display:none">
  <symbol id="icon-search" viewBox="0 0 24 24" fill="none" stroke="currentColor" stroke-width="2" stroke-linecap="round" stroke-linejoin="round">
    <circle cx="11" cy="11" r="7" />
    <path d="m20 20-3.5-3.5" />
  </symbol>
  <symbol id="icon-wallet" viewBox="0 0 24 24" fill="none" stroke="currentColor" stroke-width="2" stroke-linecap="round" stroke-linejoin="round">
    <path d="M3 7.5A2.5 2.5 0 0 1 5.5 5h13A2.5 2.5 0 0 1 21 7.5v9A2.5 2.5 0 0 1 18.5 19h-13A2.5 2.5 0 0 1 3 16.5z" />
    <path d="M3 8h18" />
    <path d="M15.5 13h5.5" />
  </symbol>
  <symbol id="icon-close" viewBox="0 0 24 24" fill="none" stroke="currentColor" stroke-width="2" stroke-linecap="round" stroke-linejoin="round">
    <path d="M6 6l12 12" />
    <path d="M18 6 6 18" />
  </symbol>
  <symbol id="icon-edit" viewBox="0 0 24 24" fill="none" stroke="currentColor" stroke-width="2" stroke-linecap="round" stroke-linejoin="round">
    <path d="m4 20 4.5-1 9-9a2.12 2.12 0 1 0-3-3l-9 9z" />
    <path d="M13.5 7.5 16.5 10.5" />
  </symbol>
  <symbol id="icon-trash" viewBox="0 0 24 24" fill="none" stroke="currentColor" stroke-width="2" stroke-linecap="round" stroke-linejoin="round">
    <path d="M4 7h16" />
    <path d="M9 7V5.5A1.5 1.5 0 0 1 10.5 4h3A1.5 1.5 0 0 1 15 5.5V7" />
    <path d="M6.5 7 7.5 19A2 2 0 0 0 9.5 21h5a2 2 0 0 0 2-2l1-12" />
    <path d="M10 11v6" />
    <path d="M14 11v6" />
  </symbol>
  <symbol id="icon-category" viewBox="0 0 24 24" fill="none" stroke="currentColor" stroke-width="2" stroke-linecap="round" stroke-linejoin="round">
    <path d="M8 5h13" />
    <path d="M8 12h13" />
    <path d="M8 19h13" />
    <circle cx="4" cy="5" r="1" />
    <circle cx="4" cy="12" r="1" />
    <circle cx="4" cy="19" r="1" />
  </symbol>
</svg>
